/* XPM */
static char * unknown[] = {
"17 16 69 2",
"   s None c None",
".. c #6f6f6f",
"#. c #e5b684",
"a. c #030303",
"b. c #ff0000",
"c. c #bcbcbc",
"d. c #e1e1e1",
"e. c #161514",
"f. c #535353",
"g. c #aeaeae",
"h. c #af8a65",
"i. c #4f4e4d",
"j. c #302d2a",
"k. c #313131",
"l. c #c9a682",
"m. c #b89978",
"n. c #565656",
"o. c #202020",
"p. c #fccb98",
"q. c #a0a0a0",
"r. c #35281a",
"s. c #a3a3a3",
"t. c #484848",
"u. c #121212",
"v. c #a18262",
"w. c #959595",
"x. c #bababa",
"y. c #4e4e4e",
"z. c #3a3633",
"A. c #2a2a2d",
"B. c #19191c",
"C. c #e2e2e2",
"D. c #5f4225",
"E. c #8a8a8a",
"F. c #7d6a57",
"G. c #ffce9c",
"H. c #4e4b47",
"I. c #e8e8e8",
"J. c #d7d7d7",
"K. c #212121",
"L. c #735332",
"M. c #909090",
"N. c #bc9975",
"O. c #3f3020",
"P. c #aa0000",
"Q. c #828282",
"R. c #a7a7a7",
"S. c #880000",
"T. c #3b3630",
"U. c #a58057",
"V. c #302a25",
"W. c #d0ab86",
"X. c #fdcc9a",
"Y. c #bf9a75",
"Z. c #1c1c1c",
"0. c #3e352c",
"1. c #c7a581",
"2. c #161413",
"3. c #514940",
"4. c #56493b",
"5. c #efc293",
"6. c #3d3c3b",
"7. c #7b6955",
"8. c #e9e9e9",
"9. c #bb9b7a",
".# c #725130",
"## c #e1b381",
"a# c #4e3f2f",
"b# c #a37e59",
"                                  ",
"          I.s.n.n.n.s.I.          ",
"        8.i.D.v.v.v.D.6.C.        ",
"      d.H.U.X.G.G.G.X.U.j.J.      ",
"      E..#p.G.G.G.G.G.p.L.Q.      ",
"      k.Y.G.7.0.G.3.F.G.W.K.      ",
"      k.Y.G.5.G.G.G.5.G.W.K.      ",
"      f.b#G.G.1.1.1.G.G.h.t.      ",
"      c.O.##l.T.V.V.N.#.a#g.      ",
"        M.r.m.G.G.G.9.4.w.        ",
"        x.u.2.z.z.z.e.a.R.        ",
"      q.A.S.P.P.P.P.P.S.B.c.      ",
"      ..S.b.b.b.b.b.b.b.S.y.      ",
"      k.P.b.b.b.b.b.b.b.P.o.      ",
"      k.S.S.S.S.S.S.S.S.S.Z.      ",
"                                  "};.u.u.u.u.C.J.g.      ",
"      a.P.k.k.k.k.k.k.k.h.G.      ",
"      s.u.k.k.k.k.k.k.k.a#w.      ",
"      s.j.l#l#l#l#l#l#l###7.      ",
"                                  "};