/* XPM */
static char * unknown[] = {
"17 16 80 2",
"   s None c None",
".. c #6a5f53",
"#. c #000000",
"a. c #6f6f6f",
"b. c #494977",
"c. c #b3916e",
"d. c #e5b684",
"e. c #030303",
"f. c #cdcdcd",
"g. c #bcbcbc",
"h. c #383859",
"i. c #e1e1e1",
"j. c #373748",
"k. c #9c9cff",
"l. c #161514",
"m. c #aeaeae",
"n. c #535353",
"o. c #af8a65",
"p. c #b89978",
"q. c #4f4e4d",
"r. c #302d2a",
"s. c #313131",
"t. c #c9a682",
"u. c #7474bd",
"v. c #565656",
"w. c #202020",
"x. c #fccb98",
"y. c #35281a",
"z. c #a3a3a3",
"A. c #484848",
"B. c #121212",
"C. c #5b5b89",
"D. c #a18262",
"E. c #959595",
"F. c #bababa",
"G. c #4e4e4e",
"H. c #3a3633",
"I. c #2a2a2d",
"J. c #19191c",
"K. c #e2e2e2",
"L. c #5f4225",
"M. c #8a8a8a",
"N. c #ffce9c",
"O. c #4e4b47",
"P. c #3f3f60",
"Q. c #e8e8e8",
"R. c #d7d7d7",
"S. c #212121",
"T. c #909090",
"U. c #735332",
"V. c #bc9975",
"W. c #3f3020",
"X. c #cba883",
"Y. c #828282",
"Z. c #a7a7a7",
"0. c #c7a481",
"1. c #3b3630",
"2. c #a58057",
"3. c #302a25",
"4. c #d0ab86",
"5. c #fdcc9a",
"6. c #bf9a75",
"7. c #1c1c1c",
"8. c #c6a27e",
"9. c #3e352c",
".# c #c7a581",
"## c #454555",
"a# c #8484cd",
"b# c #161413",
"c# c #514940",
"d# c #56493b",
"e# c #3d3c3b",
"f# c #65594d",
"g# c #e9e9e9",
"h# c #bb9b7a",
"i# c #725130",
"j# c #e1b381",
"k# c #4e3f2f",
"l# c #4a4a60",
"m# c #a37e59",
"                                  ",
"          Q.z.v.v.v.z.Q.          ",
"        g#q.L.D.D.D.L.e#K.        ",
"      i.O.2.5.N.N.N.5.2.r.R.      ",
"      M.i#x.X.f#N...8.x.U.Y.      ",
"      s.6.N.0.9.N.c#c.N.4.S.      ",
"      s.6.N.N.N.N.N.N.N.4.S.      ",
"      n.m#N.#..#.#.##.N.o.A.      ",
"      g.W.j#t.1.3.3.V.d.k#m.      ",
"        T.y.p.N.N.N.h#d#E.        ",
"        F.B.b#H.H.H.l.e.Z.        ",
"      f.I.b.u.u.u.u.u.C.J.g.      ",
"      a.P.k.k.k.k.k.k.k.h.G.      ",
"      s.u.k.k.k.k.k.k.k.a#w.      ",
"      s.j.l#l#l#l#l#l#l###7.      ",
"                                  "};