/* XPM */
static char * unknown[] = {
"17 16 102 2",
"   s None c None",
".. c #fd0000",
"#. c #b50000",
"a. c #e80808",
"b. c #6f6f6f",
"c. c #e5b684",
"d. c #030303",
"e. c #e70202",
"f. c #ff0000",
"g. c #158900",
"h. c #d50f0c",
"i. c #b80000",
"j. c #bcbcbc",
"k. c #00ff00",
"l. c #f30504",
"m. c #161514",
"n. c #bf2119",
"o. c #e80302",
"p. c #d90503",
"q. c #ad0400",
"r. c #aeaeae",
"s. c #535353",
"t. c #af8a65",
"u. c #b89978",
"v. c #c9a682",
"w. c #313131",
"x. c #202020",
"y. c #0ede00",
"z. c #a0a0a0",
"A. c #35281a",
"B. c #e90705",
"C. c #c12828",
"D. c #8a4c00",
"E. c #ed0302",
"F. c #484848",
"G. c #e70909",
"H. c #121212",
"I. c #e70f0b",
"J. c #008800",
"K. c #959595",
"L. c #be8263",
"M. c #b70101",
"N. c #e11600",
"O. c #bababa",
"P. c #4e4e4e",
"Q. c #c40000",
"R. c #2a2a2d",
"S. c #19191c",
"T. c #e90000",
"U. c #a41f1a",
"V. c #e2e2e2",
"W. c #d61a00",
"X. c #1dd200",
"Y. c #f69872",
"Z. c #ba140f",
"0. c #bf1f17",
"1. c #ffce9c",
"2. c #f41d16",
"3. c #c60100",
"4. c #d7d7d7",
"5. c #212121",
"6. c #d53e2f",
"7. c #909090",
"8. c #ef0000",
"9. c #ec0100",
".# c #b50202",
"## c #009500",
"a# c #3f3020",
"b# c #e70404",
"c# c #aa0000",
"d# c #828282",
"e# c #a7a7a7",
"f# c #eb0c09",
"g# c #ec0200",
"h# c #00aa00",
"i# c #c24242",
"j# c #d69d9d",
"k# c #d30606",
"l# c #f60000",
"m# c #d0ab86",
"n# c #cf1711",
"o# c #d20a09",
"p# c #bf9a75",
"q# c #1c1c1c",
"r# c #3e352c",
"s# c #161413",
"t# c #56493b",
"u# c #efc293",
"v# c #cf1b14",
"w# c #7b6955",
"x# c #b20000",
"y# c #0de500",
"z# c #f29974",
"A# c #d44636",
"B# c #bb9b7a",
"C# c #4e3f2f",
"D# c #e1b381",
"E# c #b91212",
"F# c #af2322",
"G# c #bc1c00",
"H# c #d0221a",
"I# c #a37e59",
"                                  ",
"          c#p.3.#..#E#j#          ",
"        Q.e.2.B.o.b#a.C.V.        ",
"      c#T.f.Y.0.Z.v#l.G.i#4.      ",
"    i.8...f.1.1.1.z#n#o#F#d#      ",
"    M.k#f.1.w#r#1.f.9.h.U.5.      ",
"      w.p#1.u#1.f...I.A#m#5.      ",
"      s.I#1.1.f.f.f#6.1.t.F.      ",
"      j.a#D#v.f.l#H#L.c.C#r.      ",
"        7.A.u.f.E.n.B#t#K.        ",
"        O.H.s#f.g#c#m.d.e#        ",
"      z.R.J.h#f.N.c#h#J.S.j.      ",
"      b.J.k.k.k.k.X.k.k.J.P.      ",
"      w.h#k.y#D.W.c#y.k.h#x.      ",
"      w.J.J.g.G#9.c#J.##J.q#      ",
"              q.x#c#              "};